<svg xmlns="http://www.w3.org/2000/svg" xmlns:xlink="http://www.w3.org/1999/xlink" width="1200" zoomAndPan="magnify" viewBox="0 0 900 225" height="300" preserveAspectRatio="xMidYMid meet" version="1.0"><defs><g/><clipPath id="cf16412d6a"><path d="M 59 11 L 176 11 L 176 169 L 59 169 Z M 59 11 " clip-rule="nonzero"/></clipPath><clipPath id="9e389e56eb"><path d="M 136.082031 0.730469 L 186.863281 30.621094 L 99.523438 178.996094 L 48.738281 149.105469 Z M 136.082031 0.730469 " clip-rule="nonzero"/></clipPath><clipPath id="3db5b67160"><path d="M 161.472656 15.675781 C 168.203125 19.636719 173.089844 26.113281 175.046875 33.679688 C 177.007812 41.246094 175.878906 49.277344 171.914062 56.011719 L 114.503906 153.542969 C 110.542969 160.277344 104.066406 165.160156 96.5 167.117188 C 88.9375 169.078125 80.902344 167.949219 74.167969 163.988281 C 67.433594 160.023438 62.550781 153.546875 60.59375 145.980469 C 58.632812 138.417969 59.761719 130.382812 63.722656 123.652344 L 121.132812 26.121094 C 125.097656 19.386719 131.574219 14.5 139.140625 12.542969 C 146.703125 10.585938 154.738281 11.710938 161.472656 15.675781 Z M 161.472656 15.675781 " clip-rule="nonzero"/></clipPath><clipPath id="1ddd2a76df"><path d="M 0 0 L 117 0 L 117 158 L 0 158 Z M 0 0 " clip-rule="nonzero"/></clipPath><clipPath id="aeea99b1a1"><path d="M 77.082031 -10.269531 L 127.863281 19.621094 L 40.523438 167.996094 L -10.261719 138.105469 Z M 77.082031 -10.269531 " clip-rule="nonzero"/></clipPath><clipPath id="1172d655fa"><path d="M 102.472656 4.675781 C 109.203125 8.636719 114.089844 15.113281 116.046875 22.679688 C 118.007812 30.246094 116.878906 38.277344 112.914062 45.011719 L 55.503906 142.542969 C 51.542969 149.277344 45.066406 154.160156 37.5 156.117188 C 29.9375 158.078125 21.902344 156.949219 15.167969 152.988281 C 8.433594 149.023438 3.550781 142.546875 1.59375 134.980469 C -0.367188 127.417969 0.761719 119.382812 4.722656 112.652344 L 62.132812 15.121094 C 66.097656 8.386719 72.574219 3.5 80.140625 1.542969 C 87.703125 -0.414062 95.738281 0.710938 102.472656 4.675781 Z M 102.472656 4.675781 " clip-rule="nonzero"/></clipPath><clipPath id="93ad230de6"><rect x="0" width="117" y="0" height="158"/></clipPath><clipPath id="e1d827e2b7"><path d="M 0 11.457031 L 60.707031 11.457031 L 60.707031 72.164062 L 0 72.164062 Z M 0 11.457031 " clip-rule="nonzero"/></clipPath><clipPath id="f4a70f4ba4"><path d="M 30.355469 11.457031 C 13.589844 11.457031 0 25.046875 0 41.8125 C 0 58.574219 13.589844 72.164062 30.355469 72.164062 C 47.117188 72.164062 60.707031 58.574219 60.707031 41.8125 C 60.707031 25.046875 47.117188 11.457031 30.355469 11.457031 Z M 30.355469 11.457031 " clip-rule="nonzero"/></clipPath><clipPath id="f9a9208871"><path d="M 0 0.457031 L 60.707031 0.457031 L 60.707031 61.164062 L 0 61.164062 Z M 0 0.457031 " clip-rule="nonzero"/></clipPath><clipPath id="c3c4ad3767"><path d="M 30.355469 0.457031 C 13.589844 0.457031 0 14.046875 0 30.8125 C 0 47.574219 13.589844 61.164062 30.355469 61.164062 C 47.117188 61.164062 60.707031 47.574219 60.707031 30.8125 C 60.707031 14.046875 47.117188 0.457031 30.355469 0.457031 Z M 30.355469 0.457031 " clip-rule="nonzero"/></clipPath><clipPath id="ee6f2df5a1"><rect x="0" width="61" y="0" height="62"/></clipPath><clipPath id="757bcec0ac"><path d="M 186 22 L 888 22 L 888 216.761719 L 186 216.761719 Z M 186 22 " clip-rule="nonzero"/></clipPath><clipPath id="c0926cb11b"><rect x="0" width="702" y="0" height="195"/></clipPath><clipPath id="fccc39fd9f"><rect x="0" width="888" y="0" height="217"/></clipPath></defs><g transform="matrix(1, 0, 0, 1, 0, 5)"><g clip-path="url(#fccc39fd9f)"><g clip-path="url(#cf16412d6a)"><g clip-path="url(#9e389e56eb)"><g clip-path="url(#3db5b67160)"><g transform="matrix(1, 0, 0, 1, 59, 11)"><g clip-path="url(#93ad230de6)"><g clip-path="url(#1ddd2a76df)"><g clip-path="url(#aeea99b1a1)"><g clip-path="url(#1172d655fa)"><path fill="#fffeff" d="M 77.082031 -10.269531 L 127.863281 19.621094 L 40.523438 167.996094 L -10.261719 138.105469 Z M 77.082031 -10.269531 " fill-opacity="1" fill-rule="nonzero"/></g></g></g></g></g></g></g></g><g clip-path="url(#e1d827e2b7)"><g clip-path="url(#f4a70f4ba4)"><g transform="matrix(1, 0, 0, 1, 0, 11)"><g clip-path="url(#ee6f2df5a1)"><g clip-path="url(#f9a9208871)"><g clip-path="url(#c3c4ad3767)"><path fill="#fffeff" d="M 0 0.457031 L 60.707031 0.457031 L 60.707031 61.164062 L 0 61.164062 Z M 0 0.457031 " fill-opacity="1" fill-rule="nonzero"/></g></g></g></g></g></g><g clip-path="url(#757bcec0ac)"><g transform="matrix(1, 0, 0, 1, 186, 22)"><g clip-path="url(#c0926cb11b)"><g fill="#fffeff" fill-opacity="1"><g transform="translate(0.863474, 152.775806)"><g><path d="M 98.78125 -17.390625 L 98.78125 0 L 15 0 L 15 -111.703125 L 96.546875 -111.703125 L 96.546875 -94.3125 L 35.75 -94.3125 L 35.75 -65.265625 L 89.6875 -65.265625 L 89.6875 -48.1875 L 35.75 -48.1875 L 35.75 -17.390625 Z M 98.78125 -17.390625 "/></g></g></g><g fill="#fffeff" fill-opacity="1"><g transform="translate(98.511817, 152.775806)"><g><path d="M 67.34375 0 L 45.484375 -29.515625 L 23.453125 0 L 1.4375 0 L 34.625 -43.25 L 2.875 -85.21875 L 25.046875 -85.21875 L 45.953125 -57.28125 L 66.859375 -85.21875 L 88.40625 -85.21875 L 56.484375 -43.5625 L 89.84375 0 Z M 67.34375 0 "/></g></g></g><g fill="#fffeff" fill-opacity="1"><g transform="translate(180.682946, 152.775806)"><g><path d="M 93.1875 -42.125 C 93.1875 -40.738281 93.082031 -38.769531 92.875 -36.21875 L 26.015625 -36.21875 C 27.179688 -29.945312 30.238281 -24.972656 35.1875 -21.296875 C 40.132812 -17.628906 46.28125 -15.796875 53.625 -15.796875 C 62.976562 -15.796875 70.6875 -18.878906 76.75 -25.046875 L 87.453125 -12.765625 C 83.617188 -8.191406 78.773438 -4.734375 72.921875 -2.390625 C 67.078125 -0.0546875 60.484375 1.109375 53.140625 1.109375 C 43.773438 1.109375 35.53125 -0.75 28.40625 -4.46875 C 21.28125 -8.1875 15.773438 -13.367188 11.890625 -20.015625 C 8.003906 -26.671875 6.0625 -34.203125 6.0625 -42.609375 C 6.0625 -50.898438 7.945312 -58.367188 11.71875 -65.015625 C 15.5 -71.671875 20.738281 -76.859375 27.4375 -80.578125 C 34.144531 -84.304688 41.703125 -86.171875 50.109375 -86.171875 C 58.398438 -86.171875 65.816406 -84.332031 72.359375 -80.65625 C 78.910156 -76.988281 84.019531 -71.832031 87.6875 -65.1875 C 91.351562 -58.539062 93.1875 -50.851562 93.1875 -42.125 Z M 50.109375 -70.21875 C 43.722656 -70.21875 38.320312 -68.328125 33.90625 -64.546875 C 29.488281 -60.773438 26.804688 -55.75 25.859375 -49.46875 L 74.203125 -49.46875 C 73.347656 -55.632812 70.738281 -60.632812 66.375 -64.46875 C 62.019531 -68.300781 56.597656 -70.21875 50.109375 -70.21875 Z M 50.109375 -70.21875 "/></g></g></g><g fill="#fffeff" fill-opacity="1"><g transform="translate(270.672467, 152.775806)"><g><path d="M 52.1875 1.109375 C 43.351562 1.109375 35.425781 -0.75 28.40625 -4.46875 C 21.382812 -8.1875 15.90625 -13.367188 11.96875 -20.015625 C 8.03125 -26.671875 6.0625 -34.203125 6.0625 -42.609375 C 6.0625 -51.015625 8.03125 -58.515625 11.96875 -65.109375 C 15.90625 -71.703125 21.359375 -76.859375 28.328125 -80.578125 C 35.296875 -84.304688 43.25 -86.171875 52.1875 -86.171875 C 60.582031 -86.171875 67.945312 -84.46875 74.28125 -81.0625 C 80.613281 -77.65625 85.375 -72.765625 88.5625 -66.390625 L 73.25 -57.453125 C 70.800781 -61.390625 67.738281 -64.335938 64.0625 -66.296875 C 60.394531 -68.265625 56.378906 -69.25 52.015625 -69.25 C 44.578125 -69.25 38.410156 -66.828125 33.515625 -61.984375 C 28.617188 -57.148438 26.171875 -50.691406 26.171875 -42.609375 C 26.171875 -34.523438 28.585938 -28.0625 33.421875 -23.21875 C 38.265625 -18.375 44.460938 -15.953125 52.015625 -15.953125 C 56.378906 -15.953125 60.394531 -16.9375 64.0625 -18.90625 C 67.738281 -20.875 70.800781 -23.828125 73.25 -27.765625 L 88.5625 -18.828125 C 85.269531 -12.441406 80.457031 -7.519531 74.125 -4.0625 C 67.789062 -0.613281 60.476562 1.109375 52.1875 1.109375 Z M 52.1875 1.109375 "/></g></g></g><g fill="#fffeff" fill-opacity="1"><g transform="translate(354.120065, 152.775806)"><g><path d="M 60.953125 -111.703125 C 70.640625 -111.703125 79.070312 -110.101562 86.25 -106.90625 C 93.4375 -103.71875 98.941406 -99.144531 102.765625 -93.1875 C 106.597656 -87.226562 108.515625 -80.15625 108.515625 -71.96875 C 108.515625 -63.882812 106.597656 -56.835938 102.765625 -50.828125 C 98.941406 -44.816406 93.4375 -40.210938 86.25 -37.015625 C 79.070312 -33.828125 70.640625 -32.234375 60.953125 -32.234375 L 35.75 -32.234375 L 35.75 0 L 15 0 L 15 -111.703125 Z M 60 -49.78125 C 69.039062 -49.78125 75.898438 -51.695312 80.578125 -55.53125 C 85.265625 -59.363281 87.609375 -64.84375 87.609375 -71.96875 C 87.609375 -79.09375 85.265625 -84.570312 80.578125 -88.40625 C 75.898438 -92.238281 69.039062 -94.15625 60 -94.15625 L 35.75 -94.15625 L 35.75 -49.78125 Z M 60 -49.78125 "/></g></g></g><g fill="#fffeff" fill-opacity="1"><g transform="translate(460.703701, 152.775806)"><g><path d="M 45.640625 -86.171875 C 58.191406 -86.171875 67.789062 -83.164062 74.4375 -77.15625 C 81.09375 -71.144531 84.421875 -62.078125 84.421875 -49.953125 L 84.421875 0 L 65.59375 0 L 65.59375 -10.375 C 63.144531 -6.644531 59.660156 -3.796875 55.140625 -1.828125 C 50.617188 0.128906 45.164062 1.109375 38.78125 1.109375 C 32.394531 1.109375 26.804688 0.0195312 22.015625 -2.15625 C 17.234375 -4.332031 13.535156 -7.363281 10.921875 -11.25 C 8.316406 -15.132812 7.015625 -19.523438 7.015625 -24.421875 C 7.015625 -32.078125 9.859375 -38.21875 15.546875 -42.84375 C 21.242188 -47.46875 30.210938 -49.78125 42.453125 -49.78125 L 64.46875 -49.78125 L 64.46875 -51.0625 C 64.46875 -57.019531 62.6875 -61.59375 59.125 -64.78125 C 55.5625 -67.976562 50.269531 -69.578125 43.25 -69.578125 C 38.457031 -69.578125 33.75 -68.832031 29.125 -67.34375 C 24.5 -65.851562 20.585938 -63.78125 17.390625 -61.125 L 9.578125 -75.640625 C 14.046875 -79.046875 19.414062 -81.648438 25.6875 -83.453125 C 31.96875 -85.265625 38.617188 -86.171875 45.640625 -86.171875 Z M 42.921875 -13.40625 C 47.921875 -13.40625 52.363281 -14.546875 56.25 -16.828125 C 60.132812 -19.117188 62.875 -22.394531 64.46875 -26.65625 L 64.46875 -36.546875 L 43.890625 -36.546875 C 32.398438 -36.546875 26.65625 -32.769531 26.65625 -25.21875 C 26.65625 -21.59375 28.085938 -18.71875 30.953125 -16.59375 C 33.828125 -14.46875 37.816406 -13.40625 42.921875 -13.40625 Z M 42.921875 -13.40625 "/></g></g></g><g fill="#fffeff" fill-opacity="1"><g transform="translate(548.299818, 152.775806)"><g><path d="M 39.421875 1.109375 C 32.503906 1.109375 25.742188 0.207031 19.140625 -1.59375 C 12.546875 -3.40625 7.28125 -5.691406 3.34375 -8.453125 L 11.015625 -23.625 C 14.835938 -21.0625 19.4375 -19.007812 24.8125 -17.46875 C 30.1875 -15.925781 35.476562 -15.15625 40.6875 -15.15625 C 52.601562 -15.15625 58.5625 -18.296875 58.5625 -24.578125 C 58.5625 -27.554688 57.046875 -29.628906 54.015625 -30.796875 C 50.984375 -31.960938 46.117188 -33.082031 39.421875 -34.15625 C 32.398438 -35.21875 26.679688 -36.4375 22.265625 -37.8125 C 17.847656 -39.195312 14.015625 -41.617188 10.765625 -45.078125 C 7.523438 -48.535156 5.90625 -53.347656 5.90625 -59.515625 C 5.90625 -67.609375 9.28125 -74.070312 16.03125 -78.90625 C 22.789062 -83.75 31.914062 -86.171875 43.40625 -86.171875 C 49.257812 -86.171875 55.109375 -85.503906 60.953125 -84.171875 C 66.804688 -82.847656 71.597656 -81.066406 75.328125 -78.828125 L 67.65625 -63.671875 C 60.425781 -67.929688 52.289062 -70.0625 43.25 -70.0625 C 37.394531 -70.0625 32.953125 -69.179688 29.921875 -67.421875 C 26.890625 -65.660156 25.375 -63.347656 25.375 -60.484375 C 25.375 -57.285156 26.992188 -55.019531 30.234375 -53.6875 C 33.484375 -52.363281 38.507812 -51.117188 45.3125 -49.953125 C 52.125 -48.890625 57.710938 -47.664062 62.078125 -46.28125 C 66.441406 -44.894531 70.191406 -42.550781 73.328125 -39.25 C 76.460938 -35.957031 78.03125 -31.28125 78.03125 -25.21875 C 78.03125 -17.238281 74.570312 -10.851562 67.65625 -6.0625 C 60.738281 -1.28125 51.328125 1.109375 39.421875 1.109375 Z M 39.421875 1.109375 "/></g></g></g><g fill="#fffeff" fill-opacity="1"><g transform="translate(621.216546, 152.775806)"><g><path d="M 39.421875 1.109375 C 32.503906 1.109375 25.742188 0.207031 19.140625 -1.59375 C 12.546875 -3.40625 7.28125 -5.691406 3.34375 -8.453125 L 11.015625 -23.625 C 14.835938 -21.0625 19.4375 -19.007812 24.8125 -17.46875 C 30.1875 -15.925781 35.476562 -15.15625 40.6875 -15.15625 C 52.601562 -15.15625 58.5625 -18.296875 58.5625 -24.578125 C 58.5625 -27.554688 57.046875 -29.628906 54.015625 -30.796875 C 50.984375 -31.960938 46.117188 -33.082031 39.421875 -34.15625 C 32.398438 -35.21875 26.679688 -36.4375 22.265625 -37.8125 C 17.847656 -39.195312 14.015625 -41.617188 10.765625 -45.078125 C 7.523438 -48.535156 5.90625 -53.347656 5.90625 -59.515625 C 5.90625 -67.609375 9.28125 -74.070312 16.03125 -78.90625 C 22.789062 -83.75 31.914062 -86.171875 43.40625 -86.171875 C 49.257812 -86.171875 55.109375 -85.503906 60.953125 -84.171875 C 66.804688 -82.847656 71.597656 -81.066406 75.328125 -78.828125 L 67.65625 -63.671875 C 60.425781 -67.929688 52.289062 -70.0625 43.25 -70.0625 C 37.394531 -70.0625 32.953125 -69.179688 29.921875 -67.421875 C 26.890625 -65.660156 25.375 -63.347656 25.375 -60.484375 C 25.375 -57.285156 26.992188 -55.019531 30.234375 -53.6875 C 33.484375 -52.363281 38.507812 -51.117188 45.3125 -49.953125 C 52.125 -48.890625 57.710938 -47.664062 62.078125 -46.28125 C 66.441406 -44.894531 70.191406 -42.550781 73.328125 -39.25 C 76.460938 -35.957031 78.03125 -31.28125 78.03125 -25.21875 C 78.03125 -17.238281 74.570312 -10.851562 67.65625 -6.0625 C 60.738281 -1.28125 51.328125 1.109375 39.421875 1.109375 Z M 39.421875 1.109375 "/></g></g></g></g></g></g></g></g></svg>