<svg xmlns="http://www.w3.org/2000/svg" xmlns:xlink="http://www.w3.org/1999/xlink" width="1200" zoomAndPan="magnify" viewBox="0 0 900 225" height="300" preserveAspectRatio="xMidYMid meet" version="1.0"><defs><g/><clipPath id="c87256b0fb"><path d="M 60 11 L 179 11 L 179 171 L 60 171 Z M 60 11 " clip-rule="nonzero"/></clipPath><clipPath id="74b558fc2f"><path d="M 138.082031 0.316406 L 189.609375 30.648438 L 100.984375 181.207031 L 49.457031 150.875 Z M 138.082031 0.316406 " clip-rule="nonzero"/></clipPath><clipPath id="0237735373"><path d="M 163.84375 15.480469 C 170.679688 19.503906 175.632812 26.074219 177.621094 33.75 C 179.609375 41.425781 178.464844 49.578125 174.445312 56.410156 L 116.1875 155.375 C 112.167969 162.210938 105.59375 167.164062 97.917969 169.152344 C 90.242188 171.140625 82.09375 169.996094 75.257812 165.976562 C 68.425781 161.953125 63.472656 155.382812 61.484375 147.707031 C 59.496094 140.03125 60.640625 131.878906 64.660156 125.046875 L 122.914062 26.082031 C 126.9375 19.246094 133.507812 14.292969 141.1875 12.304688 C 148.863281 10.316406 157.011719 11.460938 163.84375 15.480469 Z M 163.84375 15.480469 " clip-rule="nonzero"/></clipPath><clipPath id="d0110d226b"><path d="M 0 0 L 119 0 L 119 160 L 0 160 Z M 0 0 " clip-rule="nonzero"/></clipPath><clipPath id="09c074cdad"><path d="M 78.082031 -10.683594 L 129.609375 19.648438 L 40.984375 170.207031 L -10.542969 139.875 Z M 78.082031 -10.683594 " clip-rule="nonzero"/></clipPath><clipPath id="3e4b37f2fe"><path d="M 103.84375 4.480469 C 110.679688 8.503906 115.632812 15.074219 117.621094 22.75 C 119.609375 30.425781 118.464844 38.578125 114.445312 45.410156 L 56.1875 144.375 C 52.167969 151.210938 45.59375 156.164062 37.917969 158.152344 C 30.242188 160.140625 22.09375 158.996094 15.257812 154.976562 C 8.425781 150.953125 3.472656 144.382812 1.484375 136.707031 C -0.503906 129.03125 0.640625 120.878906 4.660156 114.046875 L 62.914062 15.082031 C 66.9375 8.246094 73.507812 3.292969 81.1875 1.304688 C 88.863281 -0.683594 97.011719 0.460938 103.84375 4.480469 Z M 103.84375 4.480469 " clip-rule="nonzero"/></clipPath><clipPath id="8015d2c5a9"><rect x="0" width="119" y="0" height="160"/></clipPath><clipPath id="8fb23e5b47"><path d="M 0 11.203125 L 61.601562 11.203125 L 61.601562 72.804688 L 0 72.804688 Z M 0 11.203125 " clip-rule="nonzero"/></clipPath><clipPath id="de7ea5694d"><path d="M 30.800781 11.203125 C 13.789062 11.203125 0 24.992188 0 42.003906 C 0 59.015625 13.789062 72.804688 30.800781 72.804688 C 47.8125 72.804688 61.601562 59.015625 61.601562 42.003906 C 61.601562 24.992188 47.8125 11.203125 30.800781 11.203125 Z M 30.800781 11.203125 " clip-rule="nonzero"/></clipPath><clipPath id="127c030f68"><path d="M 0 0.203125 L 61.601562 0.203125 L 61.601562 61.804688 L 0 61.804688 Z M 0 0.203125 " clip-rule="nonzero"/></clipPath><clipPath id="599aac89d7"><path d="M 30.800781 0.203125 C 13.789062 0.203125 0 13.992188 0 31.003906 C 0 48.015625 13.789062 61.804688 30.800781 61.804688 C 47.8125 61.804688 61.601562 48.015625 61.601562 31.003906 C 61.601562 13.992188 47.8125 0.203125 30.800781 0.203125 Z M 30.800781 0.203125 " clip-rule="nonzero"/></clipPath><clipPath id="b59dbbf119"><rect x="0" width="62" y="0" height="62"/></clipPath><clipPath id="5e14a27f01"><rect x="0" width="711" y="0" height="195"/></clipPath><clipPath id="7729e2ef5f"><rect x="0" width="900" y="0" height="217"/></clipPath></defs><g transform="matrix(1, 0, 0, 1, 0, 8)"><g clip-path="url(#7729e2ef5f)"><g clip-path="url(#c87256b0fb)"><g clip-path="url(#74b558fc2f)"><g clip-path="url(#0237735373)"><g transform="matrix(1, 0, 0, 1, 60, 11)"><g clip-path="url(#8015d2c5a9)"><g clip-path="url(#d0110d226b)"><g clip-path="url(#09c074cdad)"><g clip-path="url(#3e4b37f2fe)"><path fill="#bd6b73" d="M 78.082031 -10.683594 L 129.609375 19.648438 L 40.984375 170.207031 L -10.542969 139.875 Z M 78.082031 -10.683594 " fill-opacity="1" fill-rule="nonzero"/></g></g></g></g></g></g></g></g><g clip-path="url(#8fb23e5b47)"><g clip-path="url(#de7ea5694d)"><g transform="matrix(1, 0, 0, 1, 0, 11)"><g clip-path="url(#b59dbbf119)"><g clip-path="url(#127c030f68)"><g clip-path="url(#599aac89d7)"><path fill="#bd6b73" d="M 0 0.203125 L 61.601562 0.203125 L 61.601562 61.804688 L 0 61.804688 Z M 0 0.203125 " fill-opacity="1" fill-rule="nonzero"/></g></g></g></g></g></g><g transform="matrix(1, 0, 0, 1, 189, 22)"><g clip-path="url(#5e14a27f01)"><g fill="#000000" fill-opacity="1"><g transform="translate(0.611374, 154.922723)"><g><path d="M 100.234375 -17.65625 L 100.234375 0 L 15.21875 0 L 15.21875 -113.359375 L 97.96875 -113.359375 L 97.96875 -95.703125 L 36.28125 -95.703125 L 36.28125 -66.234375 L 91.015625 -66.234375 L 91.015625 -48.90625 L 36.28125 -48.90625 L 36.28125 -17.65625 Z M 100.234375 -17.65625 "/></g></g></g><g fill="#000000" fill-opacity="1"><g transform="translate(99.695676, 154.922723)"><g><path d="M 68.34375 0 L 46.15625 -29.953125 L 23.8125 0 L 1.453125 0 L 35.140625 -43.890625 L 2.921875 -86.46875 L 25.421875 -86.46875 L 46.640625 -58.140625 L 67.859375 -86.46875 L 89.71875 -86.46875 L 57.328125 -44.203125 L 91.171875 0 Z M 68.34375 0 "/></g></g></g><g fill="#000000" fill-opacity="1"><g transform="translate(183.075165, 154.922723)"><g><path d="M 94.578125 -42.75 C 94.578125 -41.34375 94.46875 -39.347656 94.25 -36.765625 L 26.390625 -36.765625 C 27.578125 -30.390625 30.679688 -25.335938 35.703125 -21.609375 C 40.722656 -17.890625 46.957031 -16.03125 54.40625 -16.03125 C 63.90625 -16.03125 71.734375 -19.160156 77.890625 -25.421875 L 88.734375 -12.953125 C 84.847656 -8.304688 79.9375 -4.796875 74 -2.421875 C 68.0625 -0.046875 61.367188 1.140625 53.921875 1.140625 C 44.421875 1.140625 36.050781 -0.75 28.8125 -4.53125 C 21.582031 -8.3125 16 -13.570312 12.0625 -20.3125 C 8.125 -27.0625 6.15625 -34.703125 6.15625 -43.234375 C 6.15625 -51.660156 8.070312 -59.242188 11.90625 -65.984375 C 15.738281 -72.734375 21.054688 -78 27.859375 -81.78125 C 34.660156 -85.5625 42.320312 -87.453125 50.84375 -87.453125 C 59.269531 -87.453125 66.800781 -85.585938 73.4375 -81.859375 C 80.070312 -78.128906 85.253906 -72.890625 88.984375 -66.140625 C 92.710938 -59.398438 94.578125 -51.601562 94.578125 -42.75 Z M 50.84375 -71.25 C 44.363281 -71.25 38.882812 -69.332031 34.40625 -65.5 C 29.925781 -61.664062 27.203125 -56.566406 26.234375 -50.203125 L 75.296875 -50.203125 C 74.429688 -56.460938 71.785156 -61.535156 67.359375 -65.421875 C 62.929688 -69.304688 57.425781 -71.25 50.84375 -71.25 Z M 50.84375 -71.25 "/></g></g></g><g fill="#000000" fill-opacity="1"><g transform="translate(274.388019, 154.922723)"><g><path d="M 52.953125 1.140625 C 43.992188 1.140625 35.953125 -0.75 28.828125 -4.53125 C 21.703125 -8.3125 16.140625 -13.570312 12.140625 -20.3125 C 8.148438 -27.0625 6.15625 -34.703125 6.15625 -43.234375 C 6.15625 -51.765625 8.148438 -59.375 12.140625 -66.0625 C 16.140625 -72.757812 21.671875 -78 28.734375 -81.78125 C 35.804688 -85.5625 43.878906 -87.453125 52.953125 -87.453125 C 61.484375 -87.453125 68.957031 -85.722656 75.375 -82.265625 C 81.800781 -78.804688 86.632812 -73.835938 89.875 -67.359375 L 74.328125 -58.296875 C 71.847656 -62.296875 68.742188 -65.289062 65.015625 -67.28125 C 61.296875 -69.28125 57.222656 -70.28125 52.796875 -70.28125 C 45.234375 -70.28125 38.96875 -67.820312 34 -62.90625 C 29.039062 -58 26.5625 -51.441406 26.5625 -43.234375 C 26.5625 -35.035156 29.015625 -28.476562 33.921875 -23.5625 C 38.835938 -18.644531 45.128906 -16.1875 52.796875 -16.1875 C 57.222656 -16.1875 61.296875 -17.1875 65.015625 -19.1875 C 68.742188 -21.1875 71.847656 -24.179688 74.328125 -28.171875 L 89.875 -19.109375 C 86.53125 -12.628906 81.644531 -7.632812 75.21875 -4.125 C 68.789062 -0.613281 61.367188 1.140625 52.953125 1.140625 Z M 52.953125 1.140625 "/></g></g></g><g fill="#000000" fill-opacity="1"><g transform="translate(359.062749, 154.922723)"><g><path d="M 61.859375 -113.359375 C 71.679688 -113.359375 80.234375 -111.738281 87.515625 -108.5 C 94.804688 -105.257812 100.394531 -100.613281 104.28125 -94.5625 C 108.175781 -88.519531 110.125 -81.34375 110.125 -73.03125 C 110.125 -64.820312 108.175781 -57.664062 104.28125 -51.5625 C 100.394531 -45.46875 94.804688 -40.800781 87.515625 -37.5625 C 80.234375 -34.332031 71.679688 -32.71875 61.859375 -32.71875 L 36.28125 -32.71875 L 36.28125 0 L 15.21875 0 L 15.21875 -113.359375 Z M 60.890625 -50.53125 C 70.066406 -50.53125 77.03125 -52.472656 81.78125 -56.359375 C 86.53125 -60.242188 88.90625 -65.800781 88.90625 -73.03125 C 88.90625 -80.269531 86.53125 -85.832031 81.78125 -89.71875 C 77.03125 -93.601562 70.066406 -95.546875 60.890625 -95.546875 L 36.28125 -95.546875 L 36.28125 -50.53125 Z M 60.890625 -50.53125 "/></g></g></g><g fill="#000000" fill-opacity="1"><g transform="translate(467.213741, 154.922723)"><g><path d="M 46.3125 -87.453125 C 59.050781 -87.453125 68.796875 -84.398438 75.546875 -78.296875 C 82.296875 -72.191406 85.671875 -62.988281 85.671875 -50.6875 L 85.671875 0 L 66.5625 0 L 66.5625 -10.53125 C 64.070312 -6.75 60.53125 -3.859375 55.9375 -1.859375 C 51.351562 0.140625 45.820312 1.140625 39.34375 1.140625 C 32.875 1.140625 27.207031 0.0351562 22.34375 -2.171875 C 17.488281 -4.390625 13.738281 -7.46875 11.09375 -11.40625 C 8.445312 -15.351562 7.125 -19.8125 7.125 -24.78125 C 7.125 -32.550781 10.007812 -38.785156 15.78125 -43.484375 C 21.5625 -48.179688 30.660156 -50.53125 43.078125 -50.53125 L 65.421875 -50.53125 L 65.421875 -51.8125 C 65.421875 -57.863281 63.613281 -62.507812 60 -65.75 C 56.382812 -68.988281 51.015625 -70.609375 43.890625 -70.609375 C 39.023438 -70.609375 34.242188 -69.851562 29.546875 -68.34375 C 24.859375 -66.832031 20.894531 -64.722656 17.65625 -62.015625 L 9.71875 -76.765625 C 14.25 -80.210938 19.695312 -82.851562 26.0625 -84.6875 C 32.4375 -86.53125 39.1875 -87.453125 46.3125 -87.453125 Z M 43.5625 -13.609375 C 48.632812 -13.609375 53.140625 -14.765625 57.078125 -17.078125 C 61.023438 -19.398438 63.804688 -22.722656 65.421875 -27.046875 L 65.421875 -37.078125 L 44.53125 -37.078125 C 32.875 -37.078125 27.046875 -33.25 27.046875 -25.59375 C 27.046875 -21.914062 28.5 -19 31.40625 -16.84375 C 34.320312 -14.6875 38.375 -13.609375 43.5625 -13.609375 Z M 43.5625 -13.609375 "/></g></g></g><g fill="#000000" fill-opacity="1"><g transform="translate(556.097995, 154.922723)"><g><path d="M 40 1.140625 C 32.976562 1.140625 26.117188 0.222656 19.421875 -1.609375 C 12.734375 -3.453125 7.394531 -5.773438 3.40625 -8.578125 L 11.171875 -23.96875 C 15.054688 -21.375 19.722656 -19.296875 25.171875 -17.734375 C 30.628906 -16.171875 36.003906 -15.390625 41.296875 -15.390625 C 53.390625 -15.390625 59.4375 -18.570312 59.4375 -24.9375 C 59.4375 -27.957031 57.894531 -30.0625 54.8125 -31.25 C 51.738281 -32.4375 46.800781 -33.570312 40 -34.65625 C 32.875 -35.738281 27.070312 -36.976562 22.59375 -38.375 C 18.113281 -39.78125 14.222656 -42.238281 10.921875 -45.75 C 7.628906 -49.257812 5.984375 -54.144531 5.984375 -60.40625 C 5.984375 -68.601562 9.410156 -75.160156 16.265625 -80.078125 C 23.128906 -84.992188 32.390625 -87.453125 44.046875 -87.453125 C 49.984375 -87.453125 55.921875 -86.773438 61.859375 -85.421875 C 67.796875 -84.066406 72.65625 -82.257812 76.4375 -80 L 68.65625 -64.609375 C 61.320312 -68.929688 53.066406 -71.09375 43.890625 -71.09375 C 37.953125 -71.09375 33.441406 -70.203125 30.359375 -68.421875 C 27.285156 -66.640625 25.75 -64.289062 25.75 -61.375 C 25.75 -58.132812 27.394531 -55.835938 30.6875 -54.484375 C 33.976562 -53.140625 39.078125 -51.875 45.984375 -50.6875 C 52.898438 -49.601562 58.570312 -48.359375 63 -46.953125 C 67.425781 -45.554688 71.226562 -43.179688 74.40625 -39.828125 C 77.59375 -36.484375 79.1875 -31.738281 79.1875 -25.59375 C 79.1875 -17.488281 75.675781 -11.003906 68.65625 -6.140625 C 61.644531 -1.285156 52.09375 1.140625 40 1.140625 Z M 40 1.140625 "/></g></g></g><g fill="#000000" fill-opacity="1"><g transform="translate(630.086993, 154.922723)"><g><path d="M 40 1.140625 C 32.976562 1.140625 26.117188 0.222656 19.421875 -1.609375 C 12.734375 -3.453125 7.394531 -5.773438 3.40625 -8.578125 L 11.171875 -23.96875 C 15.054688 -21.375 19.722656 -19.296875 25.171875 -17.734375 C 30.628906 -16.171875 36.003906 -15.390625 41.296875 -15.390625 C 53.390625 -15.390625 59.4375 -18.570312 59.4375 -24.9375 C 59.4375 -27.957031 57.894531 -30.0625 54.8125 -31.25 C 51.738281 -32.4375 46.800781 -33.570312 40 -34.65625 C 32.875 -35.738281 27.070312 -36.976562 22.59375 -38.375 C 18.113281 -39.78125 14.222656 -42.238281 10.921875 -45.75 C 7.628906 -49.257812 5.984375 -54.144531 5.984375 -60.40625 C 5.984375 -68.601562 9.410156 -75.160156 16.265625 -80.078125 C 23.128906 -84.992188 32.390625 -87.453125 44.046875 -87.453125 C 49.984375 -87.453125 55.921875 -86.773438 61.859375 -85.421875 C 67.796875 -84.066406 72.65625 -82.257812 76.4375 -80 L 68.65625 -64.609375 C 61.320312 -68.929688 53.066406 -71.09375 43.890625 -71.09375 C 37.953125 -71.09375 33.441406 -70.203125 30.359375 -68.421875 C 27.285156 -66.640625 25.75 -64.289062 25.75 -61.375 C 25.75 -58.132812 27.394531 -55.835938 30.6875 -54.484375 C 33.976562 -53.140625 39.078125 -51.875 45.984375 -50.6875 C 52.898438 -49.601562 58.570312 -48.359375 63 -46.953125 C 67.425781 -45.554688 71.226562 -43.179688 74.40625 -39.828125 C 77.59375 -36.484375 79.1875 -31.738281 79.1875 -25.59375 C 79.1875 -17.488281 75.675781 -11.003906 68.65625 -6.140625 C 61.644531 -1.285156 52.09375 1.140625 40 1.140625 Z M 40 1.140625 "/></g></g></g></g></g></g></g></svg>