<svg width="184" height="50" viewBox="0 0 184 50" fill="none" xmlns="http://www.w3.org/2000/svg">
<mask id="mask0_8156_2406" style="mask-type:luminance" maskUnits="userSpaceOnUse" x="0" y="0" width="47" height="45">
<path d="M0 0.544922H46.7828V44.3989H0V0.544922Z" fill="white"/>
</mask>
<g mask="url(#mask0_8156_2406)">
<path fill-rule="evenodd" clip-rule="evenodd" d="M36.5283 35.8924C37.2761 35.0677 37.9489 34.172 38.5289 33.2141C39.7275 31.2323 41.8583 30.3139 44.1489 30.3139H46.696C45.6118 34.4394 43.4475 38.1308 40.5147 41.0626C39.3072 42.269 37.9706 43.3433 36.5283 44.2736M23.7396 0.545898H23.7436C30.2819 0.545898 36.2186 3.21334 40.5167 7.5134C43.4564 10.4531 45.6266 14.1514 46.7098 18.2897H44.139C41.5978 18.2897 39.6505 17.0635 38.2902 15.0412C37.5858 13.9896 36.845 12.9647 35.9532 12.0749C32.8211 8.94281 28.5013 7.00142 23.7436 6.99945H23.7327C18.9779 7.00142 14.6591 8.94281 11.529 12.0729H11.5171C8.39197 15.1961 6.45452 19.5169 6.45452 24.2855V24.2944C6.45452 28.4573 7.94509 32.2888 10.4192 35.2769V43.9056C9.18313 43.0602 8.02697 42.1073 6.97144 41.0537L6.96552 41.0586C2.66644 36.7605 0.00393606 30.8279 0.000976562 24.2944V24.2855C0.00294965 17.755 2.67039 11.8214 6.97341 7.51636L6.96749 7.50946C11.2656 3.21137 17.1983 0.548858 23.7327 0.545898H23.7396Z" fill="#2583D2"/>
</g>
<path fill-rule="evenodd" clip-rule="evenodd" d="M23.2711 29.6924C23.1804 29.5553 23.0886 29.3265 22.9061 28.778L20.1657 29.6481C19.6655 29.7872 19.8007 29.6954 19.9822 28.7829C20.072 28.2798 20.2545 28.1871 20.7122 27.9109C21.8526 27.2726 21.7589 27.1355 22.3537 26.7695C22.5372 26.6797 22.4908 26.3138 22.4445 25.491L22.0301 21.2896C21.9374 20.6514 21.6168 20.5162 20.6135 20.7905L14.9068 22.4399C14.3603 22.5789 14.2212 22.6667 14.6789 21.5727C14.7687 21.3429 14.9058 20.7046 15.909 20.0171L20.2446 17.2263C20.8365 16.8159 22.0242 16.3592 21.9769 14.9436C21.9749 13.0693 22.2925 12.0226 22.7039 11.1535C23.1123 10.3308 23.569 10.3308 23.9814 11.1506C24.3928 12.0187 24.668 13.0703 24.6709 14.9397C24.7193 16.3099 25.8143 16.809 26.4535 17.2224L30.7496 20.0042C31.7992 20.6869 31.9383 21.3271 32.0301 21.554C32.4878 22.651 32.3497 22.5582 31.8022 22.4211L26.0915 20.7836C25.0882 20.5113 24.7232 20.6484 24.6778 21.2886L24.2734 25.491C24.1807 26.3108 24.1807 26.6748 24.3651 26.7675C24.9107 27.1315 24.8663 27.2706 26.0086 27.9089C26.421 28.1831 26.6035 28.2729 26.7416 28.774C26.9231 29.6885 27.0158 29.7783 26.5117 29.6431L23.7732 28.778C23.5907 29.3265 23.5454 29.5553 23.4546 29.6885C23.4073 29.7822 23.3165 29.7822 23.2711 29.6924Z" fill="#2583D2"/>
<mask id="mask1_8156_2406" style="mask-type:luminance" maskUnits="userSpaceOnUse" x="13" y="28" width="20" height="22">
<path d="M13.958 28.4326H32.8984V49.1023H13.958V28.4326Z" fill="white"/>
</mask>
<g mask="url(#mask1_8156_2406)">
<path fill-rule="evenodd" clip-rule="evenodd" d="M32.7071 29.1696V49.0551H28.9407V31.7956C30.3523 31.1515 31.6259 30.2587 32.7071 29.1696ZM25.2394 32.8472V49.0551H21.473V32.7644C22.1754 32.8857 22.9024 32.9528 23.6403 32.9528C24.1809 32.9528 24.7136 32.9123 25.2394 32.8472ZM17.7698 31.5244V49.0551H14.0034V28.5669C15.059 29.7734 16.3345 30.7806 17.7698 31.5244Z" fill="#2583D2"/>
</g>
<path d="M67.4301 18.6371V31.7383H64.2388V23.8813L61.3088 31.7383H58.7333L55.7846 23.8626V31.7383H52.5933V18.6371H56.3631L60.0397 27.7072L63.6789 18.6371H67.4301Z" fill="#2A2A2A"/>
<path d="M80.0269 18.6371L75.4919 27.4086V31.7383H72.3005V27.4086L67.7655 18.6371H71.3861L73.9242 24.1239L76.4437 18.6371H80.0269Z" fill="#2A2A2A"/>
<path d="M92.826 18.6371V21.1939H89.3548V31.7383H86.1634V21.1939H82.6922V18.6371H92.826Z" fill="#2A2A2A"/>
<path d="M100.176 31.7383L97.451 26.7927H96.6859V31.7383H93.4945V18.6371H98.8507C99.8834 18.6371 100.761 18.8175 101.482 19.1783C102.216 19.5391 102.764 20.0368 103.125 20.6713C103.485 21.2934 103.666 21.9901 103.666 22.7615C103.666 23.6325 103.417 24.4101 102.919 25.0944C102.434 25.7787 101.712 26.2639 100.754 26.5501L103.778 31.7383H100.176ZM96.6859 24.5345H98.6641C99.2489 24.5345 99.6843 24.3914 99.9705 24.1052C100.269 23.8191 100.418 23.4147 100.418 22.8922C100.418 22.3945 100.269 22.0026 99.9705 21.7164C99.6843 21.4303 99.2489 21.2872 98.6641 21.2872H96.6859V24.5345Z" fill="#2A2A2A"/>
<path d="M107.927 18.6371V31.7383H104.736V18.6371H107.927Z" fill="#2A2A2A"/>
<path d="M119.291 22.8548C119.291 23.6138 119.117 24.3105 118.769 24.9451C118.42 25.5672 117.885 26.0711 117.164 26.4568C116.442 26.8424 115.546 27.0353 114.476 27.0353H112.498V31.7383H109.307V18.6371H114.476C115.522 18.6371 116.405 18.8175 117.127 19.1783C117.848 19.5391 118.389 20.0368 118.75 20.6713C119.111 21.3058 119.291 22.0337 119.291 22.8548ZM114.234 24.4972C114.843 24.4972 115.298 24.3541 115.596 24.0679C115.895 23.7818 116.044 23.3774 116.044 22.8548C116.044 22.3323 115.895 21.9279 115.596 21.6418C115.298 21.3556 114.843 21.2125 114.234 21.2125H112.498V24.4972H114.234Z" fill="#2A2A2A"/>
<path d="M129.237 31.8689C128.006 31.8689 126.874 31.5828 125.841 31.0105C124.821 30.4381 124.006 29.6419 123.396 28.6216C122.799 27.589 122.5 26.4319 122.5 25.1504C122.5 23.8689 122.799 22.718 123.396 21.6978C124.006 20.6775 124.821 19.8812 125.841 19.3089C126.874 18.7366 128.006 18.4504 129.237 18.4504C130.469 18.4504 131.595 18.7366 132.615 19.3089C133.648 19.8812 134.457 20.6775 135.042 21.6978C135.639 22.718 135.937 23.8689 135.937 25.1504C135.937 26.4319 135.639 27.589 135.042 28.6216C134.444 29.6419 133.636 30.4381 132.615 31.0105C131.595 31.5828 130.469 31.8689 129.237 31.8689ZM129.237 28.9576C130.283 28.9576 131.116 28.6092 131.738 27.9124C132.373 27.2157 132.69 26.295 132.69 25.1504C132.69 23.9933 132.373 23.0726 131.738 22.3883C131.116 21.6915 130.283 21.3432 129.237 21.3432C128.18 21.3432 127.334 21.6853 126.699 22.3696C126.077 23.0539 125.766 23.9808 125.766 25.1504C125.766 26.3075 126.077 27.2344 126.699 27.9311C127.334 28.6154 128.18 28.9576 129.237 28.9576Z" fill="#2A2A2A"/>
<path d="M148.5 31.7383H145.309L139.971 23.6573V31.7383H136.78V18.6371H139.971L145.309 26.7554V18.6371H148.5V31.7383Z" fill="#2A2A2A"/>
<path d="M153.071 29.2748H157.252V31.7383H149.88V18.6371H153.071V29.2748Z" fill="#2A2A2A"/>
<path d="M161.032 18.6371V31.7383H157.841V18.6371H161.032Z" fill="#2A2A2A"/>
<path d="M174.132 31.7383H170.941L165.603 23.6573V31.7383H162.412V18.6371H165.603L170.941 26.7554V18.6371H174.132V31.7383Z" fill="#2A2A2A"/>
<path d="M178.703 21.1939V23.844H182.977V26.3075H178.703V29.1815H183.537V31.7383H175.512V18.6371H183.537V21.1939H178.703Z" fill="#2A2A2A"/>
</svg>
